<?xml version="1.0" encoding="UTF-8" standalone="yes"?>
<!DOCTYPE svg PUBLIC "-//W3C//DTD SVG 1.1//EN" "http://www.w3.org/Graphics/SVG/1.1/DTD/svg11.dtd">

<svg width="450" height="105" viewBox="0 0 450 105" xmlns="http://www.w3.org/2000/svg" xmlns:xlink="http://www.w3.org/1999/xlink" version="1.1" baseProfile="full">
    <g transform="scale(1,-1) translate(0,-105)">
        <path d="M 2.000000 100.233084 L 32.583980 100.233084 L 85.488611 2.071485 L 56.800002 2.071485 Z" transform="scale(1.000000,1.000000) translate(0.000000,1.000000)" fill="#ed34ba" opacity="1.000000"></path>
        <path d="M 87.741866 100.233084 L 57.957895 100.233084 L 2.800000 2.066985 L 32.534047 2.066985 Z" transform="scale(1.000000,1.000000) translate(54.000000,1.000000)" fill="#852069" opacity="1.000000"></path>
        <path d="M 2.438749 2.000000 L 2.438749 102.300072 L 15.678359 102.300072 L 15.678359 2.000000 Z M 69.305464 41.183895 Q 67.031995 40.381494 64.557927 39.846560 Q 62.083859 39.311627 59.409190 39.311627 L 87.626944 2.000000 L 69.305464 2.000000 L 36.139573 50.545235 L 46.035847 50.545235 Q 50.850251 50.545235 55.798387 51.347635 Q 60.746524 52.150036 64.691660 54.356637 Q 68.636797 56.563239 71.110865 60.374642 Q 73.584934 64.186044 73.584934 70.204049 Q 73.584934 75.018452 71.779532 78.495521 Q 69.974131 81.972591 66.831395 84.312926 Q 63.688660 86.653261 59.676657 87.789995 Q 55.664654 88.926729 51.251451 88.926729 L 36.005840 88.926729 L 21.161429 88.926729 L 21.161429 102.300072 L 52.187585 102.300072 Q 59.542923 102.300072 66.630795 100.762137 Q 73.718667 99.224203 79.201738 93.874866 Q 83.882408 89.327929 86.089009 83.042458 Q 88.295611 76.756987 88.295611 70.204049 Q 88.295611 59.906575 83.748674 52.350636 Q 79.201738 44.794697 69.305464 41.183895 Z M 194.881154 51.748836 L 163.988731 5.878269 Q 159.441795 4.006001 154.627391 3.003001 Q 149.812988 2.000000 144.864851 2.000000 L 144.597384 2.000000 Q 134.299910 2.000000 125.272904 5.945136 Q 116.245897 9.890272 109.626093 16.643810 Q 103.006288 23.397349 99.194885 32.424355 Q 95.383482 41.451362 95.383482 51.748836 Q 95.383482 62.180043 99.128018 71.407650 Q 102.872554 80.635256 109.492359 87.455661 Q 116.112164 94.276066 125.139170 98.288069 Q 134.166177 102.300072 144.597384 102.300072 Q 151.417789 102.300072 157.903860 100.494670 Q 164.389932 98.689269 170.006736 95.279067 Q 175.623540 91.868864 180.237343 87.054461 Q 184.851146 82.240057 188.060749 76.222053 L 171.611537 76.222053 Q 166.262200 82.240057 159.909862 85.850860 Q 153.557524 89.461663 145.132318 89.461663 Q 137.509513 89.461663 131.023441 86.385794 Q 124.537370 83.309925 119.722966 78.094321 Q 114.908563 72.878717 112.167028 66.058312 Q 109.425492 59.237908 109.425492 51.748836 Q 109.425492 44.527230 112.233894 37.840559 Q 115.042296 31.153888 119.923567 26.072017 Q 124.804837 20.990147 131.357775 17.981145 Q 137.910713 14.972143 145.399785 14.972143 Q 149.812988 14.972143 154.092458 16.042010 L 169.873002 39.044160 L 133.764977 39.044160 L 133.764977 51.748836 L 178.833142 51.748836 Z M 251.316661 2.000000 Q 240.885453 2.000000 231.724713 5.945136 Q 222.563973 9.890272 215.676702 16.710677 Q 208.789430 23.531082 204.844294 32.624955 Q 200.899158 41.718828 200.899158 52.016302 Q 200.899158 62.581243 204.844294 71.741983 Q 208.789430 80.902723 215.676702 87.723128 Q 222.563973 94.543533 231.724713 98.421802 Q 240.885453 102.300072 251.316661 102.300072 Q 261.881601 102.300072 271.109208 98.354936 Q 280.336815 94.409799 287.157220 87.589395 Q 293.977624 80.768990 297.855894 71.608250 Q 301.734163 62.447510 301.734163 51.882569 Q 301.734163 41.585095 297.722160 32.491222 Q 293.710158 23.397349 286.822886 16.643810 Q 279.935614 9.890272 270.774874 5.945136 Q 261.614135 2.000000 251.316661 2.000000 Z M 251.316661 89.461663 Q 239.949319 89.461663 231.457246 83.711125 Q 222.965174 77.960588 218.418237 67.529380 Q 216.947169 64.052311 216.077902 60.107175 Q 215.208635 56.162039 215.208635 52.016302 Q 215.208635 48.138033 216.077902 44.192897 Q 216.947169 40.247761 218.418237 36.503225 Q 222.965174 26.205751 231.457246 20.522080 Q 239.949319 14.838409 251.316661 14.838409 Q 263.352669 14.838409 272.179076 21.257614 Q 281.005482 27.676818 285.151218 38.776693 Q 287.424686 45.195898 287.424686 51.748836 Q 287.424686 59.505374 284.750018 66.325779 Q 282.075349 73.146184 277.260946 78.294921 Q 272.446542 83.443658 265.826738 86.452660 Q 259.206933 89.461663 251.316661 89.461663 Z" transform="scale(1.000000,1.000000) translate(146.000000,0.000000)" fill="#6e788e" opacity="1.000000"></path>
    </g>
</svg>